<svg aria-hidden="true" style="position:absolute;width:0;height:0" xmlns="http://www.w3.org/2000/svg" overflow="hidden">
    <defs>
        <symbol id="logo" viewBox="0 0 149 32">
            <path fill="var(--color1, #394149)"
                d="M23.914 14.262a3.91 3.91 0 0 0-1.116 3.125l-.019-.019a4.636 4.636 0 0 1-3.025 4.741 4.636 4.636 0 0 1-1.981.265l.019.019a3.922 3.922 0 0 0-3.137 6.681 3.917 3.917 0 0 0 6.18-.83c.4-.701.574-1.508.499-2.312l.02.019a4.636 4.636 0 0 1 3.025-4.741 4.636 4.636 0 0 1 1.981-.265l-.02-.019a3.921 3.921 0 0 0 3.454-1.512 3.906 3.906 0 0 0 .576-3.726 3.909 3.909 0 0 0-2.836-2.485 3.92 3.92 0 0 0-3.618 1.06h-.003z" />
            <path fill="var(--color2, #006b6a)"
                d="m16.045 19.878-.02-.019a3.873 3.873 0 0 0 4.242-4.239l.02.019a4.636 4.636 0 0 1 3.025-4.741 4.636 4.636 0 0 1 1.981-.265l-.02-.019a3.92 3.92 0 0 0 4.231-4.581 3.925 3.925 0 0 0-7.771 1.041l-.019-.02a4.636 4.636 0 0 1-3.025 4.741 4.638 4.638 0 0 1-1.981.265l.019.02a3.868 3.868 0 0 0-4.036 2.551 3.874 3.874 0 0 0-.206 1.688l-.019-.019c.057.672-.034 1.348-.266 1.981s-.599 1.208-1.075 1.685-1.052.844-1.685 1.075a4.637 4.637 0 0 1-1.981.266l.019.019a3.92 3.92 0 0 0-4.231 4.581 3.925 3.925 0 0 0 7.771-1.041l.02.019a4.636 4.636 0 0 1 3.025-4.741 4.636 4.636 0 0 1 1.981-.265z" />
            <path fill="var(--color1, #394149)"
                d="M8.896 17.738a3.894 3.894 0 0 0 1.114-3.125l.02.019a4.628 4.628 0 0 1 1.342-3.667 4.643 4.643 0 0 1 3.668-1.34l-.02-.019a3.925 3.925 0 0 0 3.915-2.236 3.924 3.924 0 0 0-2.874-5.532 3.925 3.925 0 0 0-4.081 1.918 3.919 3.919 0 0 0-.499 2.311l-.019-.019a4.636 4.636 0 0 1-3.025 4.741 4.636 4.636 0 0 1-1.981.265l.019.019a3.921 3.921 0 0 0-3.454 1.512 3.916 3.916 0 0 0 5.878 5.151h-.002zM41.938 7.099h3.168v15.417h-3.168V7.099zM46.9 17.236a5.591 5.591 0 0 1 6.674-5.515 5.599 5.599 0 0 1 4.094 7.629 5.595 5.595 0 0 1-5.173 3.46 5.537 5.537 0 0 1-5.596-5.575zm8.026 0a2.424 2.424 0 0 0-1.546-2.196 2.428 2.428 0 0 0-3.121 3.209 2.432 2.432 0 0 0 2.238 1.485 2.375 2.375 0 0 0 2.282-1.537 2.36 2.36 0 0 0 .147-.96zM70.72 11.956v10.027c0 3.548-2.767 5.047-5.575 5.047a5.405 5.405 0 0 1-5.005-2.56l2.703-1.563a2.409 2.409 0 0 0 2.408 1.33 2.097 2.097 0 0 0 1.735-.557 2.098 2.098 0 0 0 .65-1.702v-.965a3.753 3.753 0 0 1-3.084 1.373 5.368 5.368 0 0 1-5.197-5.363 5.365 5.365 0 0 1 5.197-5.363 3.757 3.757 0 0 1 3.084 1.373v-1.077l3.084.002zm-3.083 5.068a2.565 2.565 0 0 0-1.505-2.441 2.559 2.559 0 0 0-3.426 3.291 2.552 2.552 0 0 0 2.377 1.603 2.39 2.39 0 0 0 2.556-2.453zM72.514 17.236a5.591 5.591 0 0 1 6.675-5.515 5.599 5.599 0 0 1 4.094 7.629 5.595 5.595 0 0 1-5.173 3.46 5.537 5.537 0 0 1-5.596-5.575zm8.026 0a2.424 2.424 0 0 0-1.546-2.196 2.429 2.429 0 0 0-2.226 4.289 2.43 2.43 0 0 0 1.343.405 2.375 2.375 0 0 0 2.282-1.537 2.36 2.36 0 0 0 .147-.96zM85.185 9.126a1.9 1.9 0 1 1 1.9 1.9 1.917 1.917 0 0 1-1.901-1.901zm.32 2.83h3.169v10.56h-3.173l.004-10.56zM102.353 17.236a5.302 5.302 0 0 1-5.047 5.574 3.961 3.961 0 0 1-3.146-1.289v5.217h-3.168V11.955h3.168v.992a3.974 3.974 0 0 1 3.146-1.288 5.313 5.313 0 0 1 3.683 1.738 5.298 5.298 0 0 1 1.364 3.838zm-3.168 0a2.509 2.509 0 0 0-1.594-2.277 2.51 2.51 0 0 0-3.387 1.873 2.51 2.51 0 0 0 1.08 2.561c.412.274.895.419 1.39.419a2.413 2.413 0 0 0 2.512-2.576zM112.129 19.347c0 2.429-2.111 3.463-4.391 3.463a4.625 4.625 0 0 1-4.541-2.513l2.745-1.563a1.74 1.74 0 0 0 1.792 1.246c.759 0 1.14-.233 1.14-.654 0-1.163-5.196-.549-5.196-4.203 0-2.303 1.943-3.463 4.14-3.463a4.62 4.62 0 0 1 4.117 2.259l-2.703 1.457a1.528 1.528 0 0 0-1.414-.929c-.549 0-.887.213-.887.591.004 1.204 5.199.401 5.199 4.308zM123.701 11.956v10.56h-3.168v-.993a3.613 3.613 0 0 1-3.019 1.288c-2.133 0-3.947-1.52-3.947-4.373v-6.482h3.168v6.018a1.733 1.733 0 0 0 1.096 1.803c.235.092.487.132.74.117 1.162 0 1.964-.675 1.964-2.175v-5.76l3.165-.003zM141.867 16.032v6.483h-3.168v-6.209c0-1.056-.507-1.731-1.52-1.731-1.056 0-1.648.739-1.648 1.985v5.955h-3.167v-6.209c0-1.056-.507-1.731-1.521-1.731-1.056 0-1.647.739-1.647 1.985v5.955h-3.168v-10.56h3.168v.971a3.24 3.24 0 0 1 2.83-1.266 3.14 3.14 0 0 1 2.766 1.393 3.477 3.477 0 0 1 3.062-1.393c2.425.001 4.013 1.732 4.013 4.372zM144.546 11.891a2.352 2.352 0 1 0-.001-4.703 2.352 2.352 0 0 0 .001 4.703z" />
        </symbol>
        <symbol id="facebook" viewBox="0 0 17 32">
            <path
                d="M16 6.301h-5.053c-.93 0-1.684.754-1.684 1.684v5.053H16a.59.59 0 0 1 .573.775l-1.246 3.705a.844.844 0 0 1-.792.573H9.263v12.632a.842.842 0 0 1-.842.842H4.21a.842.842 0 0 1-.842-.842V18.091H.842A.842.842 0 0 1 0 17.249v-3.368c0-.465.377-.842.842-.842h2.526V7.986a6.737 6.737 0 0 1 6.737-6.737H16c.465 0 .842.377.842.842v3.368a.842.842 0 0 1-.842.842z" />
        </symbol>
        <symbol id="instagram" viewBox="0 0 30 32">
            <path
                d="M21.895 1.248H8.421A8.42 8.42 0 0 0 0 9.669v13.474a8.42 8.42 0 0 0 8.421 8.421h13.474a8.42 8.42 0 0 0 8.421-8.421V9.669a8.42 8.42 0 0 0-8.421-8.421zm5.473 21.895a5.492 5.492 0 0 1-5.474 5.474H8.42a5.492 5.492 0 0 1-5.474-5.474V9.669A5.491 5.491 0 0 1 8.42 4.195h13.474a5.491 5.491 0 0 1 5.474 5.474v13.474zm-4.21-13.053a1.684 1.684 0 1 0 0-3.368 1.684 1.684 0 0 0 0 3.368zm-8-1.263a7.579 7.579 0 1 0 0 15.158 7.579 7.579 0 0 0 7.579-7.579 7.561 7.561 0 0 0-7.579-7.579zm-4.632 7.579a4.632 4.632 0 1 0 9.264 0 4.632 4.632 0 0 0-9.264 0z" />
        </symbol>
        <symbol id="twitter" viewBox="0 0 36 32">
            <path
                d="M35.945 4.917a14.395 14.395 0 0 1-3.325 3.201v.989c.01 5.878-2.338 11.514-6.517 15.644s-9.841 6.411-15.716 6.329a21.987 21.987 0 0 1-9.795-2.266.452.452 0 0 1-.27-.414v-.198c0-.258.209-.467.467-.467a15.92 15.92 0 0 0 9.202-3.309A7.853 7.853 0 0 1 3 19.823a.467.467 0 0 1 .467-.647 7.185 7.185 0 0 0 2.732-.252 7.839 7.839 0 0 1-6.201-6.851.468.468 0 0 1 .647-.468 7.178 7.178 0 0 0 2.84.611A7.697 7.697 0 0 1 .412 3.333a.97.97 0 0 1 1.636-.324 22.21 22.21 0 0 0 15.115 6.977 7.217 7.217 0 0 1-.216-1.798c.054-3.178 2.02-6.009 4.979-7.168s6.323-.416 8.519 1.881a15.614 15.614 0 0 0 4.295-1.492.305.305 0 0 1 .324 0 .305.305 0 0 1 0 .324 7.856 7.856 0 0 1-3.163 3.596 15.402 15.402 0 0 0 3.595-.863.288.288 0 0 1 .323 0 .308.308 0 0 1 .126.45z" />
        </symbol>
        <symbol id="linkedin" viewBox="0 0 30 32">
            <path
                d="M3.368 1.248h23.579a3.368 3.368 0 0 1 3.368 3.368v23.579a3.368 3.368 0 0 1-3.368 3.368H3.368A3.368 3.368 0 0 1 0 28.195V4.616a3.368 3.368 0 0 1 3.368-3.368zm5.053 25.264a.842.842 0 0 0 .842-.842V13.881a.842.842 0 0 0-.842-.842H5.895a.842.842 0 0 0-.842.842V25.67c0 .465.377.842.842.842h2.526zM7.158 11.354a2.526 2.526 0 1 1 0-5.052 2.526 2.526 0 0 1 0 5.052zm17.263 15.158a.842.842 0 0 0 .842-.842v-7.747a5.22 5.22 0 0 0-4.581-5.288A5.051 5.051 0 0 0 16 14.892v-1.011a.842.842 0 0 0-.842-.842h-2.526a.842.842 0 0 0-.842.842V25.67c0 .465.377.842.842.842h2.526A.842.842 0 0 0 16 25.67v-6.316a2.526 2.526 0 0 1 5.052 0v6.316c0 .465.377.842.842.842h2.526z" />
        </symbol>
    </defs>
</svg>